<svg width="192" height="192" viewBox="0 0 192 192" fill="none" xmlns="http://www.w3.org/2000/svg">
  <rect width="192" height="192" rx="24" fill="url(#gradient)"/>
  <path d="M96 48C78.3 48 64 62.3 64 80V112C64 129.7 78.3 144 96 144C113.7 144 128 129.7 128 112V80C128 62.3 113.7 48 96 48Z" fill="#93BFEF"/>
  <path d="M80 80C80 71.2 87.2 64 96 64C104.8 64 112 71.2 112 80V112C112 120.8 104.8 128 96 128C87.2 128 80 120.8 80 112V80Z" fill="#1F1F1F"/>
  <circle cx="96" cy="96" r="8" fill="#468BE6"/>
  <defs>
    <linearGradient id="gradient" x1="0" y1="0" x2="192" y2="192">
      <stop stop-color="#1F1F1F"/>
      <stop offset="1" stop-color="#0a0a0a"/>
    </linearGradient>
  </defs>
</svg>